<?xml version="1.0" encoding="UTF-8"?>
<!DOCTYPE svg PUBLIC "-//W3C//DTD SVG 1.1//EN" "http://www.w3.org/Graphics/SVG/1.1/DTD/svg11.dtd">
<svg xmlns="http://www.w3.org/2000/svg" version="1.1" width="47px" height="36px" style="shape-rendering:geometricPrecision; text-rendering:geometricPrecision; image-rendering:optimizeQuality; fill-rule:evenodd; clip-rule:evenodd" xmlns:xlink="http://www.w3.org/1999/xlink">
<g><path style="opacity:0.964" fill="#fcfcff" d="M -0.5,-0.5 C 15.1667,-0.5 30.8333,-0.5 46.5,-0.5C 46.5,11.5 46.5,23.5 46.5,35.5C 30.8333,35.5 15.1667,35.5 -0.5,35.5C -0.5,23.5 -0.5,11.5 -0.5,-0.5 Z"/></g>
<g><path style="opacity:1" fill="#627bff" d="M 4.5,7.5 C 6.16667,7.5 7.83333,7.5 9.5,7.5C 9.33385,13.5092 9.50051,19.5092 10,25.5C 12.6667,26.8333 15.3333,26.8333 18,25.5C 18.4995,19.5092 18.6662,13.5092 18.5,7.5C 20.1667,7.5 21.8333,7.5 23.5,7.5C 23.8774,14.2569 23.3774,20.9236 22,27.5C 19.6941,29.8881 16.8608,30.8881 13.5,30.5C 10.3633,30.949 7.86328,29.949 6,27.5C 4.62256,20.9236 4.12256,14.2569 4.5,7.5 Z"/></g>
<g><path style="opacity:1" fill="#5d78ff" d="M 31.5,7.5 C 35.8691,6.9232 39.8691,7.75653 43.5,10C 43.0019,11.1581 42.1685,11.9915 41,12.5C 38.2305,11.6521 35.3971,11.3187 32.5,11.5C 32.2865,13.1439 32.6198,14.6439 33.5,16C 37.558,16.3783 41.058,17.8783 44,20.5C 45.2907,24.672 44.1241,27.8387 40.5,30C 35.8481,31.1931 31.6814,30.3597 28,27.5C 27.6124,25.9242 28.1124,24.5909 29.5,23.5C 31.9331,26.242 34.9331,27.0754 38.5,26C 39.7472,24.5064 39.7472,23.0064 38.5,21.5C 34.3093,21.2335 30.8093,19.5669 28,16.5C 26.9804,12.5532 28.1471,9.55316 31.5,7.5 Z"/></g>
</svg>
